<?xml version="1.0" encoding="utf-8"?>
<!-- Generator: Adobe Illustrator 20.1.0, SVG Export Plug-In . SVG Version: 6.00 Build 0)  -->
<!DOCTYPE svg PUBLIC "-//W3C//DTD SVG 1.1//EN" "http://www.w3.org/Graphics/SVG/1.1/DTD/svg11.dtd">
<svg version="1.1" xmlns="http://www.w3.org/2000/svg" xmlns:xlink="http://www.w3.org/1999/xlink" x="0px" y="0px"
	 viewBox="0 0 306 320.7" style="enable-background:new 0 0 306 320.7;" xml:space="preserve">
<style type="text/css">
	.st0{fill:#06529E;}
	.st1{fill:#00BBDC;}
	.st2{fill:#808284;}
	.st3{fill:#FFFFFF;}
	.st4{fill:#CFECF5;}
	.st5{fill:#EA2527;}
	.st6{fill:#00B5A2;}
	.st7{fill:#FEE000;}
	.st8{display:none;}
	.st9{display:inline;fill:none;stroke:#000000;stroke-width:0.25;stroke-miterlimit:10;}
	.st10{display:inline;}
</style>
<g id="Front">
	<g>
		<g>
			<g>
				<path class="st0" d="M103.1,153.4h-1.7v-12.8h1.7V153.4z"/>
				<path class="st0" d="M107.8,140.7c0.1,0,0.2,0.1,0.3,0.2l7.4,9.6c0-0.2,0-0.3,0-0.5c0-0.1,0-0.3,0-0.4v-9.1h1.5v12.8h-0.9
					c-0.1,0-0.3,0-0.3-0.1c-0.1,0-0.2-0.1-0.3-0.2l-7.4-9.6c0,0.1,0,0.3,0,0.4c0,0.1,0,0.3,0,0.4v9.1h-1.5v-12.8h0.9
					C107.6,140.6,107.7,140.6,107.8,140.7z"/>
				<path class="st0" d="M128.8,140.6v1.5h-4.1v11.3h-1.7V142h-4.1v-1.5H128.8z"/>
				<path class="st0" d="M138.5,140.6v1.4h-6.1v4.2h5v1.4h-5v4.4h6.1v1.4h-7.9v-12.8H138.5z"/>
				<path class="st0" d="M142.8,148v5.3h-1.7v-12.8h3.6c0.8,0,1.5,0.1,2.1,0.2c0.6,0.2,1.1,0.4,1.5,0.7s0.7,0.7,0.9,1.1
					c0.2,0.4,0.3,0.9,0.3,1.5c0,0.5-0.1,0.9-0.2,1.3c-0.1,0.4-0.3,0.7-0.6,1.1c-0.3,0.3-0.6,0.6-1,0.8c-0.4,0.2-0.8,0.4-1.3,0.5
					c0.2,0.1,0.4,0.3,0.6,0.5l3.7,5.1H149c-0.3,0-0.5-0.1-0.7-0.4l-3.3-4.6c-0.1-0.1-0.2-0.2-0.3-0.3c-0.1-0.1-0.3-0.1-0.5-0.1
					H142.8z M142.8,146.8h1.8c0.5,0,1-0.1,1.3-0.2c0.4-0.1,0.7-0.3,1-0.5c0.3-0.2,0.5-0.5,0.6-0.8c0.1-0.3,0.2-0.7,0.2-1
					c0-0.8-0.3-1.3-0.8-1.7c-0.5-0.4-1.2-0.6-2.2-0.6h-1.9V146.8z"/>
				<path class="st0" d="M153.7,140.7c0.1,0,0.2,0.1,0.3,0.2l7.4,9.6c0-0.2,0-0.3,0-0.5c0-0.1,0-0.3,0-0.4v-9.1h1.5v12.8h-0.9
					c-0.1,0-0.3,0-0.3-0.1c-0.1,0-0.2-0.1-0.3-0.2l-7.4-9.6c0,0.1,0,0.3,0,0.4c0,0.1,0,0.3,0,0.4v9.1h-1.5v-12.8h0.9
					C153.5,140.6,153.6,140.6,153.7,140.7z"/>
				<path class="st0" d="M173.8,140.6v1.4h-6.1v4.2h5v1.4h-5v4.4h6.1v1.4h-7.9v-12.8H173.8z"/>
				<path class="st0" d="M185,140.6v1.5h-4.1v11.3h-1.7V142H175v-1.5H185z"/>
			</g>
			<g>
				<path class="st1" d="M117.9,159.4v3.8h-5.8V180h-4.8v-16.8h-5.8v-3.8H117.9z"/>
				<path class="st1" d="M137.9,180h-4.8v-8.7h-8.3v8.7h-4.8v-20.5h4.8v8.6h8.3v-8.6h4.8V180z"/>
				<path class="st1" d="M146.5,180h-4.8v-20.5h4.8V180z"/>
				<path class="st1" d="M153.3,159.5c0.1,0,0.3,0.1,0.4,0.1c0.1,0.1,0.2,0.1,0.3,0.2c0.1,0.1,0.2,0.2,0.4,0.4l9.8,12.3
					c0-0.4-0.1-0.8-0.1-1.1c0-0.4,0-0.7,0-1.1v-10.9h4.2V180h-2.5c-0.4,0-0.7-0.1-0.9-0.2c-0.3-0.1-0.5-0.3-0.7-0.6l-9.7-12.2
					c0,0.4,0.1,0.7,0.1,1c0,0.3,0,0.7,0,1v11h-4.2v-20.5h2.5C153,159.4,153.2,159.4,153.3,159.5z"/>
				<path class="st1" d="M181.3,176.5c0.7,0,1.2-0.1,1.7-0.2c0.5-0.1,1-0.3,1.4-0.5v-3.1h-2c-0.3,0-0.5-0.1-0.7-0.2
					c-0.2-0.2-0.3-0.4-0.3-0.6v-2.6h7.3v8.7c-0.5,0.4-1.1,0.7-1.6,1c-0.6,0.3-1.2,0.5-1.8,0.7c-0.6,0.2-1.3,0.3-2.1,0.4
					c-0.7,0.1-1.5,0.1-2.3,0.1c-1.5,0-2.9-0.3-4.2-0.8c-1.3-0.5-2.4-1.3-3.3-2.2c-0.9-0.9-1.7-2-2.2-3.3c-0.5-1.3-0.8-2.7-0.8-4.2
					c0-1.5,0.3-2.9,0.8-4.2c0.5-1.3,1.2-2.4,2.2-3.3c0.9-0.9,2.1-1.7,3.4-2.2c1.3-0.5,2.8-0.8,4.5-0.8c0.9,0,1.7,0.1,2.4,0.2
					c0.8,0.1,1.4,0.3,2.1,0.6c0.6,0.2,1.2,0.5,1.7,0.9c0.5,0.3,1,0.7,1.4,1.1l-1.4,2.1c-0.1,0.2-0.3,0.4-0.5,0.5
					c-0.2,0.1-0.4,0.2-0.6,0.2c-0.3,0-0.6-0.1-0.9-0.3c-0.4-0.2-0.7-0.4-1.1-0.6c-0.3-0.2-0.7-0.3-1-0.4c-0.3-0.1-0.7-0.2-1.1-0.2
					c-0.4,0-0.8-0.1-1.3-0.1c-0.9,0-1.7,0.2-2.4,0.5c-0.7,0.3-1.3,0.8-1.8,1.3c-0.5,0.6-0.9,1.3-1.2,2.1c-0.3,0.8-0.4,1.7-0.4,2.7
					c0,1.1,0.1,2.1,0.5,2.9c0.3,0.8,0.7,1.6,1.2,2.1c0.5,0.6,1.2,1,1.9,1.3C179.6,176.4,180.4,176.5,181.3,176.5z"/>
				<path class="st1" d="M203.1,163.6c-0.1,0.2-0.3,0.4-0.4,0.5c-0.2,0.1-0.4,0.2-0.6,0.2c-0.2,0-0.4-0.1-0.7-0.2
					c-0.2-0.1-0.5-0.3-0.8-0.5c-0.3-0.2-0.7-0.3-1.1-0.5c-0.4-0.1-0.9-0.2-1.4-0.2c-0.9,0-1.6,0.2-2,0.6c-0.4,0.4-0.7,0.9-0.7,1.5
					c0,0.4,0.1,0.8,0.4,1c0.3,0.3,0.6,0.5,1,0.7c0.4,0.2,0.9,0.4,1.5,0.5c0.5,0.2,1.1,0.3,1.7,0.5c0.6,0.2,1.1,0.4,1.7,0.7
					c0.5,0.3,1,0.6,1.5,1c0.4,0.4,0.8,0.9,1,1.5c0.3,0.6,0.4,1.3,0.4,2.2c0,0.9-0.2,1.8-0.5,2.7c-0.3,0.8-0.8,1.5-1.4,2.2
					c-0.6,0.6-1.4,1.1-2.3,1.5c-0.9,0.4-2,0.5-3.1,0.5c-0.6,0-1.3-0.1-2-0.2c-0.7-0.1-1.3-0.3-1.9-0.6c-0.6-0.2-1.2-0.5-1.7-0.9
					c-0.5-0.3-1-0.7-1.4-1.1l1.4-2.2c0.1-0.2,0.2-0.3,0.4-0.4c0.2-0.1,0.4-0.2,0.6-0.2c0.3,0,0.6,0.1,0.9,0.3c0.3,0.2,0.6,0.4,1,0.6
					c0.4,0.2,0.8,0.4,1.2,0.6c0.5,0.2,1,0.3,1.7,0.3c0.9,0,1.5-0.2,2-0.6c0.5-0.4,0.7-1,0.7-1.8c0-0.5-0.1-0.9-0.4-1.2
					c-0.3-0.3-0.6-0.5-1-0.7c-0.4-0.2-0.9-0.4-1.5-0.5c-0.5-0.1-1.1-0.3-1.7-0.5c-0.6-0.2-1.1-0.4-1.7-0.7c-0.5-0.3-1-0.6-1.5-1.1
					c-0.4-0.4-0.8-1-1-1.6c-0.3-0.7-0.4-1.5-0.4-2.4c0-0.8,0.2-1.5,0.5-2.3c0.3-0.7,0.8-1.4,1.4-2c0.6-0.6,1.3-1,2.2-1.4
					c0.9-0.3,1.9-0.5,3-0.5c0.6,0,1.2,0,1.8,0.1c0.6,0.1,1.2,0.2,1.7,0.4c0.5,0.2,1,0.4,1.5,0.7c0.5,0.3,0.9,0.6,1.2,0.9
					L203.1,163.6z"/>
			</g>
			<circle class="st2" cx="198.3" cy="147.2" r="6.3"/>
			<g>
				<path class="st3" d="M196.8,145.3c0.4,0,0.8,0.1,1,0.4c0.2,0.3,0.4,0.7,0.4,1.2c0,0.3-0.1,0.6-0.2,0.9c-0.1,0.3-0.3,0.6-0.5,0.8
					c-0.2,0.2-0.4,0.4-0.6,0.5c-0.2,0.1-0.5,0.2-0.8,0.2c-0.4,0-0.8-0.1-1-0.4c-0.2-0.3-0.4-0.7-0.4-1.1c0-0.3,0.1-0.6,0.2-1
					c0.1-0.3,0.3-0.6,0.5-0.8c0.2-0.2,0.4-0.4,0.7-0.5C196.2,145.4,196.5,145.3,196.8,145.3z M196.7,145.7c-0.4,0-0.7,0.2-0.9,0.6
					c-0.2,0.4-0.4,0.9-0.4,1.5c0,0.4,0.1,0.7,0.2,0.9c0.1,0.2,0.3,0.3,0.6,0.3c0.4,0,0.7-0.2,0.9-0.6c0.3-0.4,0.4-0.9,0.4-1.5
					c0-0.4-0.1-0.7-0.2-0.9C197.1,145.8,196.9,145.7,196.7,145.7z"/>
				<path class="st3" d="M201.4,144.2l-0.7-0.5c-0.2,0.1-0.3,0.3-0.4,0.6c-0.1,0.3-0.2,0.7-0.3,1.3h1.1v0.4H200l-0.3,2.3
					c-0.1,0.5-0.1,0.8-0.2,1.1c-0.1,0.3-0.2,0.5-0.4,0.7c-0.2,0.3-0.4,0.5-0.6,0.7c-0.2,0.2-0.4,0.2-0.6,0.2c-0.1,0-0.2,0-0.3-0.1
					c-0.1-0.1-0.1-0.2-0.1-0.3c0-0.1,0-0.1,0-0.2c0-0.1,0.1-0.1,0.1-0.1l0.8,0.2c0.2-0.2,0.3-0.4,0.4-0.7c0.1-0.3,0.2-0.8,0.3-1.5
					l0.3-2.3l-0.5,0.1l0-0.3l0.6-0.2c0.1-0.7,0.3-1.2,0.6-1.6c0.3-0.4,0.7-0.6,1-0.6c0.2,0,0.3,0,0.5,0.1c0.1,0.1,0.2,0.2,0.2,0.3
					c0,0.1,0,0.2-0.1,0.3C201.6,144.1,201.5,144.2,201.4,144.2z"/>
			</g>
		</g>
		<g>
			<path class="st1" d="M68.3,190l-0.6,0.6c-0.2,0.2-0.5,0.3-0.7,0.3c-0.3,0-0.5-0.1-0.7-0.3l-2.4-2.4v5.7c0,0.6-0.5,0.9-1,0.9h-1
				c-0.6,0-1-0.4-1-0.9v-5.7l-2.4,2.4c-0.2,0.2-0.5,0.3-0.7,0.3c-0.3,0-0.5-0.1-0.7-0.3l-0.6-0.6c-0.2-0.2-0.3-0.5-0.3-0.7
				s0.1-0.5,0.3-0.7l5.3-5.3c0.2-0.2,0.5-0.3,0.7-0.3c0.3,0,0.5,0.1,0.7,0.3l5.3,5.3c0.2,0.2,0.3,0.5,0.3,0.7S68.5,189.8,68.3,190z"
				/>
			<path class="st4" d="M62.3,201.9c-7.1,0-12.9-5.8-12.9-12.9c0-7.1,5.8-12.9,12.9-12.9c7.1,0,12.9,5.8,12.9,12.9
				C75.2,196.1,69.4,201.9,62.3,201.9z M62.3,177.5c-6.3,0-11.4,5.1-11.4,11.4c0,6.3,5.1,11.4,11.4,11.4c6.3,0,11.4-5.1,11.4-11.4
				C73.7,182.6,68.6,177.5,62.3,177.5z"/>
		</g>
		<g>
			<path class="st5" d="M175.8,45.7v5c0,0.9-0.7,1.7-1.7,1.7v2.1c0,1.1-0.9,2.1-2.1,2.1h-24.2c-1.1,0-2.1-0.9-2.1-2.1V41.9
				c0-1.1,0.9-2.1,2.1-2.1H172c1.1,0,2.1,0.9,2.1,2.1V44C175,44,175.8,44.8,175.8,45.7z M174.1,45.7h-1.7v-3.8
				c0-0.2-0.2-0.4-0.4-0.4h-24.2c-0.2,0-0.4,0.2-0.4,0.4v12.5c0,0.2,0.2,0.4,0.4,0.4H172c0.2,0,0.4-0.2,0.4-0.4v-3.8h1.7V45.7z
				 M149.1,43.2h11.7v10h-11.7V43.2z"/>
			<path class="st4" d="M160.7,68.6c-11.2,0-20.4-9.1-20.4-20.4c0-11.2,9.1-20.4,20.4-20.4c11.2,0,20.4,9.1,20.4,20.4
				C181.1,59.4,172,68.6,160.7,68.6z M160.7,29.3c-10.4,0-18.9,8.5-18.9,18.9s8.5,18.9,18.9,18.9c10.4,0,18.9-8.5,18.9-18.9
				S171.1,29.3,160.7,29.3z"/>
		</g>
		<g>
			<path class="st5" d="M167.4,246.7v1.5h-1.5c0,0.4-0.4,0.7-0.8,0.7h-17.7c-0.4,0-0.8-0.3-0.8-0.7h-1.5v-1.5l11.1-4.4L167.4,246.7z
				 M167.4,261.5v1.5h-22.2v-1.5c0-0.4,0.4-0.7,0.8-0.7h20.6C167,260.8,167.4,261.1,167.4,261.5z M151,249.7v8.9h1.5v-8.9h3v8.9h1.5
				v-8.9h3v8.9h1.5v-8.9h3v8.9h0.7c0.4,0,0.8,0.3,0.8,0.7v0.7h-19.3v-0.7c0-0.4,0.4-0.7,0.8-0.7h0.7v-8.9H151z"/>
			<path class="st4" d="M156.2,270.8c-10,0-18.2-8.2-18.2-18.2c0-10,8.2-18.2,18.2-18.2s18.2,8.2,18.2,18.2
				C174.4,262.6,166.3,270.8,156.2,270.8z M156.2,236c-9.2,0-16.7,7.5-16.7,16.7c0,9.2,7.5,16.7,16.7,16.7s16.7-7.5,16.7-16.7
				C172.9,243.4,165.4,236,156.2,236z"/>
		</g>
		<g>
			<path class="st1" d="M213.2,92.4H191V75.8h1.4V91h20.7V92.4z M197.9,89.6h-2.8v-5.5h2.8V89.6z M202.1,89.6h-2.8V78.5h2.8V89.6z
				 M206.2,89.6h-2.8v-8.3h2.8V89.6z M210.4,89.6h-2.8V77.1h2.8V89.6z"/>
			<path class="st4" d="M202.1,101.1c-9.4,0-17-7.6-17-17c0-9.4,7.6-17,17-17c9.4,0,17,7.6,17,17
				C219.1,93.4,211.5,101.1,202.1,101.1z M202.1,68.6c-8.5,0-15.5,7-15.5,15.5c0,8.5,7,15.5,15.5,15.5s15.5-7,15.5-15.5
				C217.6,75.5,210.6,68.6,202.1,68.6z"/>
		</g>
		<g>
			<path class="st4" d="M79.9,118.5c-9.6,0-17.4-7.8-17.4-17.4s7.8-17.4,17.4-17.4c9.6,0,17.4,7.8,17.4,17.4S89.5,118.5,79.9,118.5z
				 M79.9,85.2c-8.8,0-15.9,7.1-15.9,15.9S71.1,117,79.9,117s15.9-7.1,15.9-15.9S88.6,85.2,79.9,85.2z"/>
			<path class="st6" d="M75.2,109.2c-4.5,0-8.1-3.6-8.1-8.1c0-4.5,3.6-8.1,8.1-8.1c2.2,0,4,0.8,5.4,2.1l-2.2,2.1
				c-0.6-0.6-1.6-1.3-3.2-1.3c-2.8,0-5,2.3-5,5.1s2.3,5.1,5,5.1c3.2,0,4.4-2.3,4.6-3.5h-4.6v-2.8h7.7c0.1,0.4,0.1,0.8,0.1,1.4
				C83,105.9,79.9,109.2,75.2,109.2z M92.6,102.3h-2.3v2.3H88v-2.3h-2.3v-2.3H88v-2.3h2.3v2.3h2.3V102.3z"/>
		</g>
		<g>
			<path class="st7" d="M248.7,165.7c-3.2,0-5.7-2.6-5.7-5.8c0-1.7,0.7-3.2,1.9-4.3l-0.8-1.3l-4.5,6c-0.2,0.2-0.4,0.3-0.7,0.3h-2.5
				c-0.4,2.8-2.8,4.9-5.7,4.9c-3.2,0-5.8-2.6-5.8-5.8c0-3.2,2.6-5.7,5.8-5.7c1,0,1.9,0.3,2.8,0.7l1.8-2.3h-2.9
				c-0.4,0-0.8-0.4-0.8-0.8c0-0.4,0.4-0.8,0.8-0.8h4.9v1.6h5.6l-1.1-1.6h-2.8c-0.4,0-0.8-0.4-0.8-0.8s0.4-0.8,0.8-0.8h3.3
				c0.3,0,0.5,0.1,0.7,0.4l3.4,5.1c0.7-0.4,1.6-0.6,2.5-0.6c3.2,0,5.8,2.6,5.8,5.7C254.5,163.2,251.9,165.7,248.7,165.7z
				 M230.7,160.8c-0.7,0-1.1-0.8-0.7-1.3l2.4-3.2c-0.5-0.3-1.1-0.4-1.8-0.4c-2.3,0-4.1,1.8-4.1,4.1c0,2.3,1.8,4.1,4.1,4.1
				c2,0,3.6-1.4,4-3.3H230.7z M234.7,159.2c-0.2-0.7-0.5-1.4-1-1.9l-1.4,1.9H234.7z M242.2,154.2H236l-1.3,1.7
				c0.9,0.8,1.4,2,1.6,3.2h2.1L242.2,154.2z M248.7,155.9c-0.6,0-1.1,0.1-1.6,0.3l2.2,3.3c0.3,0.4,0.2,0.9-0.2,1.1
				c-0.1,0.1-0.3,0.1-0.5,0.1c-0.3,0-0.5-0.1-0.7-0.4l-2.2-3.3c-0.7,0.7-1.2,1.8-1.2,2.9c0,2.3,1.8,4.1,4.1,4.1
				c2.3,0,4.1-1.8,4.1-4.1C252.8,157.7,251,155.9,248.7,155.9z"/>
			<path class="st4" d="M239.7,177.6c-11.1,0-20.1-9-20.1-20.1c0-11.1,9-20.1,20.1-20.1c11.1,0,20.1,9,20.1,20.1
				C259.8,168.6,250.8,177.6,239.7,177.6z M239.7,139c-10.2,0-18.6,8.3-18.6,18.6c0,10.2,8.3,18.6,18.6,18.6
				c10.2,0,18.6-8.3,18.6-18.6C258.3,147.3,249.9,139,239.7,139z"/>
		</g>
		<g>
			<path class="st1" d="M127,251.5v8.4c0,1.3-1.1,2.4-2.4,2.4h-13.2c-1.3,0-2.4-1.1-2.4-2.4v-8.4c0-1.3,1.1-2.4,2.4-2.4h2.1l0.5-1.3
				c0.2-0.6,1-1.1,1.6-1.1h4.8c0.7,0,1.4,0.5,1.6,1.1l0.5,1.3h2.1C125.9,249.1,127,250.2,127,251.5z M122.2,255.7
				c0-2.3-1.9-4.2-4.2-4.2c-2.3,0-4.2,1.9-4.2,4.2c0,2.3,1.9,4.2,4.2,4.2C120.3,259.9,122.2,258,122.2,255.7z M120.7,255.7
				c0,1.5-1.2,2.7-2.7,2.7s-2.7-1.2-2.7-2.7c0-1.5,1.2-2.7,2.7-2.7S120.7,254.2,120.7,255.7z"/>
			<path class="st4" d="M118,269.3c-8.2,0-14.8-6.6-14.8-14.8c0-8.2,6.6-14.8,14.8-14.8s14.8,6.6,14.8,14.8
				C132.8,262.6,126.2,269.3,118,269.3z M118,241.2c-7.3,0-13.3,6-13.3,13.3s6,13.3,13.3,13.3s13.3-6,13.3-13.3
				S125.3,241.2,118,241.2z"/>
		</g>
		<g>
			<path class="st7" d="M53.8,222.9c0,0.2-0.1,0.3-0.3,0.3h-1v1.4c0,1.1-0.9,2-2,2s-2-0.9-2-2v-1.4H37.5v1.4c0,1.1-0.9,2-2,2
				s-2-0.9-2-2v-1.4h-1c-0.2,0-0.3-0.1-0.3-0.3v-4.1c0-1.3,1.1-2.4,2.4-2.4h0.3l1.1-4.4c0.3-1.3,1.6-2.3,3-2.3H47c1.4,0,2.7,1,3,2.3
				l1.1,4.4h0.3c1.3,0,2.4,1.1,2.4,2.4V222.9z M35.4,218.1c-0.9,0-1.7,0.8-1.7,1.7c0,0.9,0.8,1.7,1.7,1.7c0.9,0,1.7-0.8,1.7-1.7
				C37.1,218.9,36.4,218.1,35.4,218.1z M48.3,216.4l-0.9-3.8c0-0.1-0.2-0.3-0.4-0.3h-8.2c-0.1,0-0.3,0.2-0.4,0.3l-0.9,3.8H48.3z
				 M50.4,218.1c-0.9,0-1.7,0.8-1.7,1.7c0,0.9,0.8,1.7,1.7,1.7c0.9,0,1.7-0.8,1.7-1.7C52.1,218.9,51.3,218.1,50.4,218.1z"/>
			<path class="st4" d="M42.9,234.8c-9.2,0-16.7-7.5-16.7-16.7c0-9.2,7.5-16.7,16.7-16.7c9.2,0,16.7,7.5,16.7,16.7
				C59.6,227.3,52.1,234.8,42.9,234.8z M42.9,202.9c-8.4,0-15.2,6.8-15.2,15.2c0,8.4,6.8,15.2,15.2,15.2c8.4,0,15.2-6.8,15.2-15.2
				C58.1,209.7,51.3,202.9,42.9,202.9z"/>
		</g>
		<g>
			<path class="st5" d="M41.2,165.9H28.8v-2.7c0-0.6,0.5-1.1,1.1-1.1h2.4v-1.1c0-0.4,0.3-0.7,0.7-0.7h4c0.4,0,0.7,0.3,0.7,0.7v1.1
				h2.4c0.6,0,1.1,0.5,1.1,1.1V165.9z M41.2,169.9c0,0.6-0.5,1.1-1.1,1.1H29.9c-0.6,0-1.1-0.5-1.1-1.1v-3.3h4.6v1.1
				c0,0.2,0.2,0.4,0.4,0.4h2.2c0.2,0,0.4-0.2,0.4-0.4v-1.1h4.6V169.9z M36.8,162.2v-0.9h-3.5v0.9H36.8z M35.9,167.5h-1.8v-0.9h1.8
				V167.5z"/>
			<path class="st4" d="M35,176.9c-6.1,0-11.1-5-11.1-11.1c0-6.1,5-11.1,11.1-11.1s11.1,5,11.1,11.1C46.1,171.9,41.1,176.9,35,176.9
				z M35,156.1c-5.3,0-9.6,4.3-9.6,9.6c0,5.3,4.3,9.6,9.6,9.6s9.6-4.3,9.6-9.6C44.6,160.4,40.3,156.1,35,156.1z"/>
		</g>
		<g>
			<path class="st7" d="M149.5,93.6h-10.2c-2.3,0-4.2-1.9-4.2-4.2c0-1.6,1-3.1,2.4-3.8c0-0.1,0-0.3,0-0.4c0-2.7,2.2-4.8,4.8-4.8
				c2,0,3.7,1.2,4.5,3c0.4-0.4,1-0.6,1.6-0.6c1.3,0,2.4,1.1,2.4,2.4c0,0.5-0.1,0.9-0.4,1.3c1.6,0.4,2.8,1.8,2.8,3.5
				C153.1,92,151.5,93.6,149.5,93.6z M146.8,87.5h-2.1v-3.3c0-0.2-0.1-0.3-0.3-0.3h-1.8c-0.2,0-0.3,0.1-0.3,0.3v3.3h-2.1
				c-0.2,0-0.3,0.1-0.3,0.3c0,0.1,0,0.2,0.1,0.2l3.3,3.3c0.1,0.1,0.1,0.1,0.2,0.1c0.1,0,0.2,0,0.2-0.1l3.3-3.3
				c0.1-0.1,0.1-0.1,0.1-0.2C147.1,87.7,146.9,87.5,146.8,87.5z"/>
			<path class="st4" d="M144.1,101.9c-8.2,0-14.9-6.7-14.9-14.9c0-8.2,6.7-14.9,14.9-14.9c8.2,0,14.9,6.7,14.9,14.9
				C159,95.2,152.3,101.9,144.1,101.9z M144.1,73.5c-7.4,0-13.4,6-13.4,13.4c0,7.4,6,13.4,13.4,13.4c7.4,0,13.4-6,13.4-13.4
				C157.5,79.6,151.5,73.5,144.1,73.5z"/>
		</g>
		<g>
			<path class="st7" d="M241.9,243.7v14.2c0,1-0.8,1.9-1.9,1.9h-18.7c-1,0-1.9-0.8-1.9-1.9v-14.2c0-1,0.8-1.9,1.9-1.9h18.7
				C241.1,241.8,241.9,242.7,241.9,243.7z M221,243.7v2.6h19.5v-2.6c0-0.2-0.2-0.4-0.4-0.4h-18.7C221.1,243.3,221,243.5,221,243.7z
				 M240.4,257.9v-7.1H221v7.1c0,0.2,0.2,0.4,0.4,0.4h18.7C240.3,258.3,240.4,258.1,240.4,257.9z M222.5,255.3h3v1.5h-3V255.3z
				 M226.9,255.3h4.5v1.5h-4.5V255.3z"/>
			<path class="st4" d="M230.7,269.2c-10.1,0-18.4-8.2-18.4-18.4s8.2-18.4,18.4-18.4c10.1,0,18.4,8.2,18.4,18.4
				S240.8,269.2,230.7,269.2z M230.7,234c-9.3,0-16.9,7.6-16.9,16.9c0,9.3,7.6,16.9,16.9,16.9c9.3,0,16.9-7.6,16.9-16.9
				C247.5,241.5,240,234,230.7,234z"/>
		</g>
		<g>
			<path class="st0" d="M222.1,207.6c-1.9,1.3-3.9,2.7-5.8,4c-0.8,0.6-2.2,1.7-3.2,1.7h0h0c-1,0-2.4-1.1-3.2-1.7
				c-1.9-1.3-3.8-2.7-5.8-4c-0.9-0.6-2.1-2-2.1-3.1c0-1.2,0.7-2.2,2-2.2h18.2c1.1,0,2,0.9,2,2C224.2,205.6,223.2,206.9,222.1,207.6z
				 M224.2,217.7c0,1.1-0.9,2-2,2h-18.2c-1.1,0-2-0.9-2-2v-9.8c0.4,0.4,0.8,0.8,1.2,1.1c2,1.4,4.1,2.8,6.1,4.3
				c1,0.8,2.3,1.7,3.7,1.7h0h0c1.3,0,2.6-0.9,3.7-1.7c2-1.5,4.1-2.9,6.1-4.3c0.4-0.3,0.9-0.7,1.2-1.1V217.7z"/>
			<path class="st4" d="M213.1,230.3c-10.6,0-19.3-8.7-19.3-19.3c0-10.6,8.7-19.3,19.3-19.3c10.6,0,19.3,8.7,19.3,19.3
				C232.4,221.6,223.8,230.3,213.1,230.3z M213.1,193.2c-9.8,0-17.8,8-17.8,17.8c0,9.8,8,17.8,17.8,17.8c9.8,0,17.8-8,17.8-17.8
				C230.9,201.1,223,193.2,213.1,193.2z"/>
		</g>
		<g>
			<path class="st1" d="M202.4,259.6v11.6c0,0.5-0.4,1-1,1h-13.5c-0.5,0-1-0.4-1-1v-16.1c0-0.5,0.4-1,1-1h9c0.5,0,1.3,0.3,1.6,0.7
				l3.1,3.1C202.1,258.3,202.4,259,202.4,259.6z M201.1,260.5h-4.2c-0.5,0-1-0.4-1-1v-4.2h-7.7v15.4h12.9V260.5z M189.5,262.5
				c0-1.1,0.9-1.9,1.9-1.9c1.1,0,1.9,0.9,1.9,1.9c0,1.1-0.9,1.9-1.9,1.9C190.4,264.4,189.5,263.5,189.5,262.5z M199.8,269.5h-10.3
				v-1.9l1.9-1.9l1.3,1.3l3.9-3.9l3.2,3.2V269.5z M197.3,259.2h3.8c-0.1-0.2-0.2-0.3-0.2-0.4l-3.1-3.1c-0.1-0.1-0.2-0.2-0.4-0.2
				V259.2z"/>
			<path class="st4" d="M194.7,279c-8.8,0-15.9-7.1-15.9-15.9c0-8.8,7.1-15.9,15.9-15.9c8.8,0,15.9,7.1,15.9,15.9
				C210.6,271.9,203.4,279,194.7,279z M194.7,248.7c-7.9,0-14.4,6.4-14.4,14.4c0,7.9,6.4,14.4,14.4,14.4c7.9,0,14.4-6.4,14.4-14.4
				C209.1,255.2,202.6,248.7,194.7,248.7z"/>
		</g>
		<g>
			<path class="st1" d="M113.3,114.5h-1.1c-0.9,0-1.7-0.4-1.7-1.4c0-0.7,0-3,1.1-3c0.2,0,1.1,0.7,2.2,0.7c0.4,0,0.8-0.1,1.1-0.2
				c0,0.2,0,0.4,0,0.6c0,0.8,0.2,1.5,0.7,2.2C114.7,113.4,113.9,113.8,113.3,114.5z M113.8,110.1c-1.2,0-2.2-1-2.2-2.2
				c0-1.2,1-2.2,2.2-2.2c1.2,0,2.2,1,2.2,2.2C116,109.1,115,110.1,113.8,110.1z M122.5,121H115c-1.4,0-2.3-0.8-2.3-2.2
				c0-1.9,0.5-4.9,3-4.9c0.3,0,1.4,1.2,3.1,1.2c1.7,0,2.8-1.2,3.1-1.2c2.5,0,3,3,3,4.9C124.8,120.2,123.9,121,122.5,121z
				 M118.8,114.5c-1.8,0-3.3-1.5-3.3-3.3c0-1.8,1.5-3.3,3.3-3.3s3.3,1.5,3.3,3.3C122,113,120.6,114.5,118.8,114.5z M123.7,110.1
				c-1.2,0-2.2-1-2.2-2.2c0-1.2,1-2.2,2.2-2.2c1.2,0,2.2,1,2.2,2.2C125.9,109.1,124.9,110.1,123.7,110.1z M125.3,114.5h-1.1
				c-0.6-0.7-1.4-1.1-2.3-1.1c0.4-0.6,0.7-1.4,0.7-2.2c0-0.2,0-0.4,0-0.6c0.4,0.1,0.7,0.2,1.1,0.2c1.2,0,2-0.7,2.2-0.7
				c1.1,0,1.1,2.3,1.1,3C127,114,126.2,114.5,125.3,114.5z"/>
			<path class="st4" d="M118.8,127c-7.5,0-13.6-6.1-13.6-13.6s6.1-13.6,13.6-13.6c7.5,0,13.6,6.1,13.6,13.6S126.3,127,118.8,127z
				 M118.8,101.2c-6.7,0-12.1,5.4-12.1,12.1c0,6.7,5.4,12.1,12.1,12.1c6.7,0,12.1-5.4,12.1-12.1
				C130.9,106.7,125.4,101.2,118.8,101.2z"/>
		</g>
		<g>
			<path class="st6" d="M258.6,215.3c0,3.2-2.6,5.7-5.7,5.7c-1,0-1.9-0.2-2.8-0.7l-3.2,1l1-3.1c-0.5-0.9-0.8-1.9-0.8-3
				c0-3.2,2.6-5.7,5.7-5.7C256,209.6,258.6,212.1,258.6,215.3z M257.6,215.3c0-2.6-2.1-4.8-4.8-4.8s-4.8,2.1-4.8,4.8
				c0,1,0.3,2,0.9,2.8l-0.6,1.8l1.8-0.6c0.8,0.5,1.7,0.8,2.6,0.8C255.5,220.1,257.6,217.9,257.6,215.3z M255.8,216.8
				c0,0,0,0.1,0,0.1c0,0.2-0.1,0.4-0.1,0.6c-0.2,0.4-0.9,0.7-1.3,0.7c-0.4,0-1.1-0.3-1.4-0.5c-1.1-0.5-1.8-1.3-2.4-2.3
				c-0.3-0.4-0.5-1-0.5-1.5v-0.1c0-0.5,0.2-0.9,0.6-1.2c0.1-0.1,0.2-0.2,0.4-0.2c0.1,0,0.2,0,0.3,0c0.2,0,0.2,0.1,0.3,0.3
				c0.1,0.1,0.4,1.2,0.4,1.2c0,0.3-0.5,0.6-0.5,0.8c0,0,0,0.1,0,0.1c0.2,0.4,0.5,0.8,0.8,1c0.4,0.3,0.7,0.6,1.1,0.8
				c0.1,0,0.1,0.1,0.2,0.1c0.2,0,0.6-0.7,0.8-0.7C254.5,216,255.8,216.7,255.8,216.8z"/>
			<path class="st4" d="M252.7,227.7c-6.7,0-12.2-5.5-12.2-12.2c0-6.7,5.5-12.2,12.2-12.2s12.2,5.5,12.2,12.2
				C264.9,222.2,259.5,227.7,252.7,227.7z M252.7,204.8c-5.9,0-10.7,4.8-10.7,10.7c0,5.9,4.8,10.7,10.7,10.7
				c5.9,0,10.7-4.8,10.7-10.7C263.4,209.6,258.6,204.8,252.7,204.8z"/>
		</g>
		<g>
			<path class="st6" d="M111.6,223l-0.3,0.6l-2.5,0.4c-0.4,1.4-1.7,2.5-3.3,2.5v0.4c0,0.2-0.2,0.4-0.4,0.4h-0.8
				c-0.2,0-0.4-0.2-0.4-0.4v-7.6c0-0.2,0.2-0.4,0.4-0.4h0.8c0.2,0,0.4,0.2,0.4,0.4v0.4c1.3,0,2.4,0.7,3,1.7l0.9-0.2
				c0.3-0.8,0.4-1.7,0.4-2.6c0-4-4-7.5-8.5-7.5c-4.5,0-8.5,3.5-8.5,7.5c0,0.9,0.1,1.7,0.4,2.6l0.9,0.2c0.6-1,1.7-1.7,3-1.7v-0.4
				c0-0.2,0.2-0.4,0.4-0.4h0.8c0.2,0,0.4,0.2,0.4,0.4v7.6c0,0.2-0.2,0.4-0.4,0.4h-0.8c-0.2,0-0.4-0.2-0.4-0.4v-0.4
				c-1.6,0-2.9-1.1-3.3-2.5l-2.5-0.4l-0.3-0.6c-0.5-1.3-0.8-2.7-0.8-4.2c0-5.5,5.1-10.1,11-10.1c6,0,11,4.6,11,10.1
				C112.4,220.3,112.2,221.7,111.6,223z"/>
			<path class="st4" d="M101.4,238.8c-11.4,0-20.7-9.3-20.7-20.7c0-11.4,9.3-20.7,20.7-20.7c11.4,0,20.7,9.3,20.7,20.7
				C122.1,229.5,112.8,238.8,101.4,238.8z M101.4,198.9c-10.6,0-19.2,8.6-19.2,19.2c0,10.6,8.6,19.2,19.2,19.2
				c10.6,0,19.2-8.6,19.2-19.2C120.6,207.5,112,198.9,101.4,198.9z"/>
		</g>
		<g>
			<path class="st0" d="M208.5,41.2v12.4c0,0.4-0.3,0.8-0.8,0.8h-3.5v-5.4h1.8l0.3-2.1h-2.1v-1.3c0-0.6,0.2-1,1-1l1.1,0v-1.9
				c-0.2,0-0.9-0.1-1.6-0.1c-1.6,0-2.7,1-2.7,2.8v1.5h-1.8v2.1h1.8v5.4h-6.7c-0.4,0-0.8-0.3-0.8-0.8V41.2c0-0.4,0.3-0.8,0.8-0.8
				h12.4C208.2,40.4,208.5,40.8,208.5,41.2z"/>
			<path class="st4" d="M201.6,61.7c-7.9,0-14.4-6.4-14.4-14.4S193.7,33,201.6,33S216,39.4,216,47.4S209.5,61.7,201.6,61.7z
				 M201.6,34.5c-7.1,0-12.9,5.8-12.9,12.9s5.8,12.9,12.9,12.9c7.1,0,12.9-5.8,12.9-12.9S208.7,34.5,201.6,34.5z"/>
		</g>
		<g>
			<path class="st0" d="M114.5,77c0,1.1-0.9,1.9-1.9,1.9h-8.9v1.5h4.2c0.2,0,0.4,0.2,0.4,0.4v0.8c0,0.2-0.2,0.4-0.4,0.4h-10
				c-0.2,0-0.4-0.2-0.4-0.4v-0.8c0-0.2,0.2-0.4,0.4-0.4h4.2v-1.5h-8.9c-1.1,0-1.9-0.9-1.9-1.9V65.5c0-1.1,0.9-1.9,1.9-1.9h19.3
				c1.1,0,1.9,0.9,1.9,1.9V77z M112.9,65.5c0-0.2-0.2-0.4-0.4-0.4H93.3c-0.2,0-0.4,0.2-0.4,0.4V77c0,0.2,0.2,0.4,0.4,0.4h19.3
				c0.2,0,0.4-0.2,0.4-0.4V65.5z"/>
			<path class="st4" d="M102.9,91.6C92.5,91.6,84,83.2,84,72.8s8.5-18.9,18.9-18.9c10.4,0,18.9,8.5,18.9,18.9S113.3,91.6,102.9,91.6
				z M102.9,55.4c-9.6,0-17.4,7.8-17.4,17.4s7.8,17.4,17.4,17.4c9.6,0,17.4-7.8,17.4-17.4S112.5,55.4,102.9,55.4z"/>
		</g>
		<g>
			<path class="st1" d="M155.2,213c0,2.2-1.7,4-3.8,4.3v1h1.9c0.3,0,0.5,0.2,0.5,0.5c0,0.3-0.2,0.5-0.5,0.5h-4.8
				c-0.3,0-0.5-0.2-0.5-0.5c0-0.3,0.2-0.5,0.5-0.5h1.9v-1c-2.2-0.2-3.8-2.1-3.8-4.3v-1c0-0.3,0.2-0.5,0.5-0.5c0.3,0,0.5,0.2,0.5,0.5
				v1c0,1.8,1.5,3.3,3.4,3.3c1.8,0,3.4-1.5,3.4-3.3v-1c0-0.3,0.2-0.5,0.5-0.5c0.3,0,0.5,0.2,0.5,0.5V213z M153.3,213
				c0,1.3-1.1,2.4-2.4,2.4c-1.3,0-2.4-1.1-2.4-2.4v-3.8c0-1.3,1.1-2.4,2.4-2.4c1.3,0,2.4,1.1,2.4,2.4V213z"/>
			<path class="st4" d="M150.9,224.9c-6.6,0-12-5.4-12-12c0-6.6,5.4-12,12-12c6.6,0,12,5.4,12,12
				C162.9,219.6,157.5,224.9,150.9,224.9z M150.9,202.5c-5.8,0-10.5,4.7-10.5,10.5c0,5.8,4.7,10.5,10.5,10.5
				c5.8,0,10.5-4.7,10.5-10.5C161.4,207.2,156.7,202.5,150.9,202.5z"/>
		</g>
		<g>
			<path class="st0" d="M57.3,132.5c-0.1,1.2-0.3,2.2-1.2,3c-0.8,0.8-1.9,1.1-3,1.2c-1,0.1-2,0-3,0c-1,0-2,0-3,0
				c-1.2-0.1-2.2-0.3-3-1.2c-0.8-0.8-1.1-1.9-1.2-3c-0.1-1,0-2,0-3c0-1,0-2,0-3c0.1-1.2,0.3-2.2,1.2-3c0.8-0.8,1.9-1.1,3-1.2
				c1-0.1,2,0,3,0c1,0,2,0,3,0c1.2,0.1,2.2,0.3,3,1.2c0.8,0.8,1.1,1.9,1.2,3c0.1,1,0,2,0,3C57.4,130.5,57.4,131.5,57.3,132.5z
				 M45.9,123.8c-0.3,0.1-0.6,0.3-0.8,0.5c-0.3,0.3-0.4,0.5-0.5,0.8c-0.4,1-0.3,3.2-0.3,4.3c0,1.1-0.1,3.3,0.3,4.3
				c0.1,0.3,0.3,0.6,0.5,0.8c0.3,0.3,0.5,0.4,0.8,0.5c1,0.4,3.2,0.3,4.3,0.3c1.1,0,3.3,0.1,4.3-0.3c0.3-0.1,0.6-0.3,0.8-0.5
				c0.3-0.3,0.4-0.5,0.5-0.8c0.4-1,0.3-3.2,0.3-4.3c0-1.1,0.1-3.3-0.3-4.3c-0.1-0.3-0.3-0.6-0.5-0.8c-0.3-0.3-0.5-0.4-0.8-0.5
				c-1-0.4-3.2-0.3-4.3-0.3C49.1,123.6,46.8,123.5,45.9,123.8z M50.1,133.2c-2.1,0-3.7-1.7-3.7-3.7c0-2.1,1.7-3.7,3.7-3.7
				c2.1,0,3.7,1.7,3.7,3.7C53.8,131.5,52.2,133.2,50.1,133.2z M50.1,127.1c-1.3,0-2.4,1.1-2.4,2.4c0,1.3,1.1,2.4,2.4,2.4
				c1.3,0,2.4-1.1,2.4-2.4C52.5,128.2,51.5,127.1,50.1,127.1z M54,126.5c-0.5,0-0.9-0.4-0.9-0.9c0-0.5,0.4-0.9,0.9-0.9
				c0.5,0,0.9,0.4,0.9,0.9C54.9,126.1,54.5,126.5,54,126.5z"/>
			<path class="st4" d="M50.1,144.4c-8.2,0-14.9-6.7-14.9-14.9c0-8.2,6.7-14.9,14.9-14.9c8.2,0,14.9,6.7,14.9,14.9
				C65,137.7,58.4,144.4,50.1,144.4z M50.1,116.1c-7.4,0-13.4,6-13.4,13.4c0,7.4,6,13.4,13.4,13.4s13.4-6,13.4-13.4
				C63.5,122.1,57.5,116.1,50.1,116.1z"/>
		</g>
		<g>
			<path class="st1" d="M77.8,158.3c0,0.6-0.5,1.1-1.1,1.1h-4.4c-0.6,0-1.1-0.5-1.1-1.1v-8.7c0-0.6,0.5-1.1,1.1-1.1h4.4
				c0.6,0,1.1,0.5,1.1,1.1V158.3z M76.9,150.9c0-0.1-0.1-0.3-0.3-0.3h-4.4c-0.1,0-0.3,0.1-0.3,0.3v6c0,0.1,0.1,0.3,0.3,0.3h4.4
				c0.1,0,0.3-0.1,0.3-0.3V150.9z M75.2,149.6h-1.4c-0.1,0-0.1,0.1-0.1,0.1c0,0.1,0.1,0.1,0.1,0.1h1.4c0.1,0,0.1-0.1,0.1-0.1
				C75.3,149.6,75.3,149.6,75.2,149.6z M74.5,157.6c-0.4,0-0.7,0.3-0.7,0.7c0,0.4,0.3,0.7,0.7,0.7c0.4,0,0.7-0.3,0.7-0.7
				C75.2,157.9,74.9,157.6,74.5,157.6z"/>
			<path class="st4" d="M74.5,167.5c-7.5,0-13.6-6.1-13.6-13.6c0-7.5,6.1-13.6,13.6-13.6c7.5,0,13.6,6.1,13.6,13.6
				C88.1,161.4,82,167.5,74.5,167.5z M74.5,141.9c-6.7,0-12.1,5.4-12.1,12.1c0,6.7,5.4,12.1,12.1,12.1c6.7,0,12.1-5.4,12.1-12.1
				C86.6,147.3,81.2,141.9,74.5,141.9z"/>
		</g>
		<g>
			<path class="st1" d="M254.8,84.7c0,0.1,0,0.2,0,0.3c0,3-2.3,6.4-6.4,6.4c-1.3,0-2.5-0.4-3.5-1c0.2,0,0.4,0,0.5,0
				c1.1,0,2-0.4,2.8-1c-1,0-1.8-0.7-2.1-1.6c0.1,0,0.3,0,0.4,0c0.2,0,0.4,0,0.6-0.1c-1-0.2-1.8-1.1-1.8-2.2c0,0,0,0,0,0
				c0.3,0.2,0.6,0.3,1,0.3c-0.6-0.4-1-1.1-1-1.9c0-0.4,0.1-0.8,0.3-1.1c1.1,1.4,2.8,2.3,4.7,2.4c0-0.2-0.1-0.3-0.1-0.5
				c0-1.2,1-2.3,2.3-2.3c0.6,0,1.2,0.3,1.6,0.7c0.5-0.1,1-0.3,1.4-0.5c-0.2,0.5-0.5,1-1,1.2c0.5,0,0.9-0.2,1.3-0.3
				C255.7,84,255.3,84.4,254.8,84.7z"/>
			<path class="st4" d="M250.5,98.2c-6.2,0-11.3-5.1-11.3-11.3c0-6.2,5.1-11.3,11.3-11.3c6.2,0,11.3,5.1,11.3,11.3
				C261.7,93.2,256.7,98.2,250.5,98.2z M250.5,77.2c-5.4,0-9.8,4.4-9.8,9.8c0,5.4,4.4,9.8,9.8,9.8c5.4,0,9.8-4.4,9.8-9.8
				C260.2,81.6,255.8,77.2,250.5,77.2z"/>
		</g>
		<g>
			<path class="st1" d="M260.7,191.5c-1.5-0.1-2.8-1.3-3-2.9c-0.1-1.1,0.3-2.1,1-2.7l-0.5-0.8c-0.9,0.8-1.5,1.9-1.5,3.1
				c0,0.3-0.2,0.5-0.5,0.5h-1.8H254c-0.2,1.6-1.6,2.8-3.2,2.8c-1.8,0-3.2-1.4-3.2-3.2c0-1.8,1.4-3.2,3.2-3.2c0.4,0,0.7,0.1,1.1,0.2
				l0.2-0.3c-0.6-0.5-1.3-0.8-2.2-0.8h-0.5c-0.3,0-0.5-0.2-0.5-0.5c0-0.3,0.2-0.5,0.5-0.5h0.9c1.6,0,2.4,0.7,2.8,0.9h3.7h0.8
				l-0.6-0.9h-1.6c-0.3,0-0.5-0.3-0.5-0.5c0-0.2,0.3-0.4,0.5-0.4h1.8c0.2,0,0.3,0.1,0.4,0.2l0.5,0.8l0.8-0.8
				c0.1-0.1,0.2-0.1,0.3-0.1h0.7c0.3,0,0.5,0.2,0.5,0.5v0.9c0,0.3-0.2,0.5-0.5,0.5h-1.3l0.8,1.2c0.6-0.3,1.3-0.4,2-0.3
				c1.4,0.3,2.4,1.4,2.6,2.8C264.4,190,262.8,191.7,260.7,191.5z M253.1,188.8h-2.3c-0.2,0-0.3-0.1-0.4-0.2c-0.1-0.1-0.1-0.3,0-0.5
				l1.1-2c-0.2-0.1-0.4-0.1-0.7-0.1c-1.3,0-2.3,1-2.3,2.3c0,1.3,1,2.3,2.3,2.3C252,190.6,252.9,189.8,253.1,188.8z M263.3,188.3
				c0-1.3-1-2.3-2.3-2.3c-0.3,0-0.6,0.1-0.9,0.2l1.3,1.9c0.1,0.2,0.1,0.5-0.1,0.6c-0.1,0.1-0.2,0.1-0.3,0.1c-0.2,0-0.3-0.1-0.4-0.2
				l-1.2-1.9c-0.4,0.4-0.7,1-0.7,1.6c0,1.3,1,2.3,2.3,2.3C262.2,190.6,263.3,189.6,263.3,188.3z"/>
			<path class="st4" d="M255.9,198.5c-6.4,0-11.6-5.2-11.6-11.6c0-6.4,5.2-11.6,11.6-11.6c6.4,0,11.6,5.2,11.6,11.6
				C267.5,193.3,262.3,198.5,255.9,198.5z M255.9,176.9c-5.5,0-10.1,4.5-10.1,10.1s4.5,10.1,10.1,10.1S266,192.5,266,187
				S261.5,176.9,255.9,176.9z"/>
		</g>
		<g>
			<path class="st5" d="M269.9,114.8c0.3,0,1,0,1.6,0.7c0,0,0.5,0.5,0.6,1.6c0.2,1.3,0.2,2.6,0.2,2.6v1.2c0,0,0,1.3-0.2,2.6
				c-0.1,1.1-0.6,1.6-0.6,1.6c-0.6,0.6-1.3,0.6-1.6,0.7c0,0-2.3,0.2-5.7,0.2c-4.3,0-5.6-0.2-5.6-0.2c-0.4-0.1-1.2,0-1.8-0.7
				c0,0-0.5-0.5-0.6-1.6c-0.2-1.3-0.2-2.6-0.2-2.6v-1.2c0,0,0-1.3,0.2-2.6c0.1-1.1,0.6-1.6,0.6-1.6c0.6-0.7,1.3-0.7,1.6-0.7
				c0,0,2.3-0.2,5.7-0.2C267.6,114.6,269.9,114.8,269.9,114.8z M266.9,120.2l-4.4-2.3v4.6L266.9,120.2z"/>
			<path class="st4" d="M264.2,134.8c-8,0-14.5-6.5-14.5-14.5c0-8,6.5-14.5,14.5-14.5s14.5,6.5,14.5,14.5
				C278.7,128.3,272.2,134.8,264.2,134.8z M264.2,107.4c-7.2,0-13,5.8-13,13c0,7.2,5.8,13,13,13c7.2,0,13-5.8,13-13
				C277.2,113.2,271.3,107.4,264.2,107.4z"/>
		</g>
		<g>
			<path class="st1" d="M182.9,119.2c-0.2,0-0.5-0.1-0.6-0.3l-2.4-2.4c-0.8,0.6-1.8,0.9-2.8,0.9c-2.7,0-4.9-2.2-4.9-4.9
				c0-2.7,2.2-4.9,4.9-4.9c2.7,0,4.9,2.2,4.9,4.9c0,1-0.3,2-0.9,2.8l2.4,2.4c0.2,0.2,0.3,0.4,0.3,0.6
				C183.8,118.8,183.4,119.2,182.9,119.2z M177.1,109.3c-1.7,0-3.1,1.4-3.1,3.1s1.4,3.1,3.1,3.1c1.7,0,3.1-1.4,3.1-3.1
				S178.8,109.3,177.1,109.3z"/>
			<path class="st4" d="M178,124.6c-6.2,0-11.2-5-11.2-11.2s5-11.2,11.2-11.2s11.2,5,11.2,11.2S184.2,124.6,178,124.6z M178,103.6
				c-5.4,0-9.7,4.4-9.7,9.7c0,5.4,4.4,9.7,9.7,9.7c5.4,0,9.7-4.4,9.7-9.7C187.7,108,183.4,103.6,178,103.6z"/>
		</g>
		<g>
			<path class="st6" d="M227.9,126c-2.9,0-5.3-2.4-5.3-5.3c0-1.5,0.6-2.8,1.5-3.7v-8.5c0-2.1,1.7-3.8,3.8-3.8c2.1,0,3.8,1.7,3.8,3.8
				v8.5c0.9,1,1.5,2.3,1.5,3.7C233.2,123.6,230.8,126,227.9,126z M230.2,117.6v-9.1c0-1.3-1-2.3-2.3-2.3s-2.3,1-2.3,2.3v9.1
				c-0.9,0.7-1.5,1.8-1.5,3c0,2.1,1.7,3.8,3.8,3.8c2.1,0,3.8-1.7,3.8-3.8C231.7,119.4,231.1,118.3,230.2,117.6z M227.9,122.9
				c-1.3,0-2.3-1-2.3-2.3c0-1,0.6-1.8,1.5-2.2v-7.8h1.5v7.8c0.9,0.3,1.5,1.2,1.5,2.2C230.2,121.9,229.1,122.9,227.9,122.9z
				 M234.7,109.2h-2.3v-1.5h2.3V109.2z M234.7,112.3h-2.3v-1.5h2.3V112.3z M234.7,115.3h-2.3v-1.5h2.3V115.3z"/>
			<path class="st4" d="M228.6,134c-10.3,0-18.7-8.4-18.7-18.7c0-10.3,8.4-18.7,18.7-18.7s18.7,8.4,18.7,18.7
				C247.3,125.6,238.9,134,228.6,134z M228.6,98.2c-9.5,0-17.2,7.7-17.2,17.2s7.7,17.2,17.2,17.2c9.5,0,17.2-7.7,17.2-17.2
				S238.1,98.2,228.6,98.2z"/>
		</g>
		<path class="st4" d="M150.9,201.4c-0.4,0-0.8-0.3-0.8-0.8v-15.6c0-0.4,0.3-0.8,0.8-0.8c0.4,0,0.8,0.3,0.8,0.8v15.6
			C151.7,201.1,151.3,201.4,150.9,201.4z"/>
		<path class="st4" d="M183.8,253.4c-0.3,0-0.6-0.2-0.7-0.5l-7.4-20.4v-47.4c0-0.4,0.3-0.8,0.8-0.8c0.4,0,0.8,0.3,0.8,0.8v47.2
			l7.3,20.1c0.1,0.4-0.1,0.8-0.4,1C184,253.4,183.9,253.4,183.8,253.4z"/>
		<path class="st4" d="M216.2,241.6c-0.1,0-0.3,0-0.4-0.1L189.4,226v-40.9c0-0.4,0.3-0.8,0.8-0.8c0.4,0,0.8,0.3,0.8,0.8v40l25.7,15
			c0.4,0.2,0.5,0.7,0.3,1C216.7,241.4,216.5,241.6,216.2,241.6z"/>
		<path class="st4" d="M245.1,186.7h-11.7l-24.5-16.4c-0.3-0.2-0.4-0.7-0.2-1c0.2-0.3,0.7-0.4,1-0.2l24.1,16.1h11.2
			c0.4,0,0.8,0.3,0.8,0.8C245.9,186.4,245.5,186.7,245.1,186.7z"/>
		<path class="st4" d="M220.4,158.3h-11.1c-0.4,0-0.8-0.3-0.8-0.8c0-0.4,0.3-0.8,0.8-0.8h11.1c0.4,0,0.8,0.3,0.8,0.8
			C221.2,157.9,220.8,158.3,220.4,158.3z"/>
		<path class="st4" d="M209.3,148.1c-0.3,0-0.5-0.2-0.7-0.4c-0.2-0.4,0-0.8,0.3-1l42.4-21.2c0.4-0.2,0.8,0,1,0.3
			c0.2,0.4,0,0.8-0.3,1L209.7,148C209.6,148.1,209.4,148.1,209.3,148.1z"/>
		<path class="st4" d="M205.7,136.5c-0.4,0-0.8-0.3-0.8-0.8v-5.3l9-5.1c0.4-0.2,0.8-0.1,1,0.3c0.2,0.4,0.1,0.8-0.3,1l-8.2,4.7v4.4
			C206.4,136.1,206.1,136.5,205.7,136.5z"/>
		<path class="st4" d="M198.2,136.5c-0.1,0-0.2,0-0.3-0.1c-0.4-0.2-0.6-0.6-0.4-1l14.9-35.6l27.1-13.5c0.4-0.2,0.8,0,1,0.3
			c0.2,0.4,0,0.8-0.3,1l-26.6,13.2L198.9,136C198.8,136.3,198.5,136.5,198.2,136.5z"/>
		<path class="st4" d="M191.9,136.5c-0.4,0-0.8-0.3-0.8-0.8v-21.3l10.3-14.5c0.2-0.3,0.7-0.4,1-0.2c0.3,0.2,0.4,0.7,0.2,1l-10,14.1
			v20.9C192.7,136.1,192.3,136.5,191.9,136.5z"/>
		<path class="st4" d="M178.7,136.5c-0.4,0-0.8-0.3-0.8-0.8v-11.9c0-0.4,0.3-0.8,0.8-0.8c0.4,0,0.8,0.3,0.8,0.8v11.9
			C179.4,136.1,179.1,136.5,178.7,136.5z"/>
		<path class="st4" d="M160,136.5c-0.4,0-0.8-0.3-0.8-0.8v-23.8l33-54.5c0.2-0.4,0.7-0.5,1-0.3c0.4,0.2,0.5,0.7,0.3,1l-32.7,54.1
			v23.3C160.8,136.1,160.4,136.5,160,136.5z"/>
		<path class="st4" d="M146.5,136.5c-0.4,0-0.8-0.3-0.8-0.8v-20.2l14.3-19V67.8c0-0.4,0.3-0.8,0.8-0.8c0.4,0,0.8,0.3,0.8,0.8V97
			l-14.3,19v19.7C147.2,136.1,146.9,136.5,146.5,136.5z"/>
		<path class="st4" d="M138.5,136.5c-0.4,0-0.8-0.3-0.8-0.8l0-20.2l5.6-14.6c0.1-0.4,0.6-0.6,1-0.4c0.4,0.1,0.6,0.6,0.4,1l-5.6,14.5
			v19.8C139.2,136.1,138.9,136.5,138.5,136.5z"/>
		<path class="st4" d="M118.8,136.5c-0.4,0-0.8-0.3-0.8-0.8v-9.5c0-0.4,0.3-0.8,0.8-0.8c0.4,0,0.8,0.3,0.8,0.8v9.5
			C119.5,136.1,119.2,136.5,118.8,136.5z"/>
		<path class="st4" d="M108,136.5c-0.3,0-0.6-0.2-0.7-0.4l-5.2-11V90.9c0-0.4,0.3-0.8,0.8-0.8c0.4,0,0.8,0.3,0.8,0.8v33.8l5,10.7
			c0.2,0.4,0,0.8-0.4,1C108.2,136.4,108.1,136.5,108,136.5z"/>
		<path class="st4" d="M96.7,136.5c-0.3,0-0.6-0.2-0.7-0.5l-8.1-20.4c-0.2-0.4,0-0.8,0.4-1c0.4-0.2,0.8,0,1,0.4l8.1,20.4
			c0.2,0.4,0,0.8-0.4,1C96.9,136.4,96.8,136.5,96.7,136.5z"/>
		<path class="st4" d="M96.5,143.2c-0.2,0-0.4-0.1-0.6-0.2l-11.5-12.7H64.3c-0.4,0-0.7-0.3-0.7-0.8c0-0.4,0.3-0.8,0.7-0.8h20.8
			l12,13.2c0.3,0.3,0.3,0.8-0.1,1.1C96.9,143.1,96.7,143.2,96.5,143.2z"/>
		<path class="st4" d="M96.5,154.7h-9.2c-0.4,0-0.8-0.3-0.8-0.8c0-0.4,0.3-0.8,0.8-0.8h9.2c0.4,0,0.8,0.3,0.8,0.8
			C97.3,154.3,96.9,154.7,96.5,154.7z"/>
		<path class="st4" d="M96.5,173.7l-20.4,0l-30.9-7.2c-0.4-0.1-0.7-0.5-0.6-0.9c0.1-0.4,0.5-0.7,0.9-0.6l30.8,7.2h20.2
			c0.4,0,0.8,0.3,0.8,0.8C97.3,173.3,96.9,173.7,96.5,173.7z"/>
		<path class="st4" d="M74.5,189.7c-0.3,0-0.6-0.2-0.7-0.5c-0.1-0.4,0.1-0.8,0.5-0.9l22-6.8c0.4-0.1,0.8,0.1,0.9,0.5
			c0.1,0.4-0.1,0.8-0.5,0.9l-22,6.8C74.6,189.7,74.6,189.7,74.5,189.7z"/>
		<path class="st4" d="M58.9,218.9c-0.2,0-0.4-0.1-0.6-0.3c-0.3-0.3-0.2-0.8,0.1-1.1l43.4-33c0.3-0.3,0.8-0.2,1.1,0.1
			c0.3,0.3,0.2,0.8-0.1,1.1l-43.4,33C59.2,218.8,59,218.9,58.9,218.9z"/>
		
			<rect x="226.4" y="172.9" transform="matrix(0.5734 -0.8192 0.8192 0.5734 -62.5436 269.0987)" class="st4" width="1.5" height="43.5"/>
		<polygon class="st4" points="201.6,196.6 196.6,191.9 196.6,185.1 198.1,185.1 198.1,191.2 202.6,195.5 		"/>
		<path class="st4" d="M162.9,237.3c-0.1,0-0.2,0-0.3-0.1c-0.4-0.2-0.5-0.6-0.3-1l3.9-7.7v-42.9c0-0.4,0.3-0.8,0.8-0.8
			c0.4,0,0.8,0.3,0.8,0.8v43.3l-4,8C163.5,237.1,163.2,237.3,162.9,237.3z"/>
		<path class="st4" d="M112.4,202.2c-0.2,0-0.4-0.1-0.5-0.2c-0.3-0.3-0.3-0.8,0-1.1l6.1-6.7v-9.2c0-0.4,0.3-0.8,0.8-0.8
			c0.4,0,0.8,0.3,0.8,0.8v9.8L113,202C112.9,202.2,112.6,202.2,112.4,202.2z"/>
		<path class="st4" d="M124.1,242.6c-0.1,0-0.2,0-0.3-0.1c-0.4-0.2-0.5-0.6-0.4-1l7.9-17.5v-38.9c0-0.4,0.3-0.8,0.8-0.8
			c0.4,0,0.8,0.3,0.8,0.8v39.3l-8,17.8C124.7,242.4,124.4,242.6,124.1,242.6z"/>
	</g>
</g>
<g id="Back">
</g>
<g id="Layer_2" class="st8">
	<line class="st9" x1="0" y1="-38.6" x2="306" y2="339.4"/>
	<line class="st9" x1="306" y1="-38.6" x2="0" y2="339.4"/>
	<g class="st10">
		<circle class="st6" cx="155" cy="2.6" r="9.8"/>
		<circle class="st7" cx="232.3" cy="2.6" r="9.8"/>
		<circle class="st4" cx="77.7" cy="2.6" r="9.8"/>
	</g>
</g>
</svg>
